<svg xmlns="http://www.w3.org/2000/svg" xmlns:xlink="http://www.w3.org/1999/xlink" width="282.90003967285156" height="253.537841796875" viewBox="0 0 282.90003967285156 253.537841796875" fill="none">
<path d="M96.4 0.637833C48.7 7.03784 10.4 43.3378 1.5 90.5378C-0.5 101.038 -0.5 120.038 1.5 130.538C11.5 183.238 57.8 221.538 111.7 221.538L116.9 221.538L116.9 169.538L116.9 117.538L169.1 117.538L221.2 117.538L220.6 105.238C219.2 77.7378 209.2 54.3378 190.1 34.3378C169.5 12.8378 144.2 1.33784 114.4 0.137833C108.4 -0.162155 100.3 0.0378418 96.4 0.637833ZM102.9 33.1378L102.9 51.8378L94.7 51.1378C87.5 50.5378 83.4 49.9378 75.1 48.0378L72.9 47.5378L75.8 41.7378C79.5 34.4378 86.9 24.5378 91.1 21.3378C93.8 19.3378 101.5 14.7378 102.7 14.5378C102.8 14.5378 102.9 22.9378 102.9 33.1378ZM123.4 17.4378C130.4 21.5378 136.9 28.6378 142.9 38.4378C146.6 44.6378 147.6 47.1378 146.7 47.6378C144.8 48.6378 125.9 51.5378 121 51.5378L116.9 51.5378L116.9 33.0378C116.9 22.8378 117.2 14.5378 117.7 14.5378C118.1 14.5378 120.7 15.8378 123.4 17.4378ZM67.8 27.7378C65.6 31.2378 62.8 36.1378 61.6 38.7378C59.2 44.0378 59.4 44.0378 50.5 40.1378L45.6 38.0378L51.3 33.7378C55.6 30.4378 70.3 21.6378 71.6 21.5378C71.8 21.5378 70 24.3378 67.8 27.7378ZM168.6 33.3378C171.6 35.7378 173.7 38.0378 173.3 38.4378C172.2 39.3378 161.7 43.6378 161.4 43.3378C161.2 43.1378 159.9 40.5378 158.4 37.5378C156.9 34.5378 154.4 30.2378 152.9 28.0378C151.5 25.8378 149.9 23.4378 149.4 22.6378C148.2 20.5378 162.2 28.4378 168.6 33.3378ZM44.4 52.3378C48.3 53.9378 52.1 55.5378 53 55.8378C54.5 56.3378 54.5 56.9378 52.8 63.2378C50.4 71.8378 48.2 84.6378 47.3 95.2378L46.6 103.538L30.1 103.538L13.6 103.538L14.3 97.6378C15.2 89.7378 18.3 78.8378 21.9 70.9378C25.7 62.5378 35 48.3378 36.4 48.9378C36.9 49.2378 40.6 50.7378 44.4 52.3378ZM190 55.6378C198.4 68.0378 204.4 83.6378 206.4 98.2378L207.1 103.538L190.6 103.538L174 103.538L173.4 97.7378C172 84.1378 170.6 75.4378 168.6 67.0378C167.4 62.0378 166.4 57.6378 166.4 57.2378C166.4 56.8378 170.2 54.9378 174.8 53.0378C179.4 51.1378 183.4 49.3378 183.7 49.1378C184.6 48.2378 185.8 49.5378 190 55.6378ZM79.4 62.9378C83.9 63.7378 91 64.7378 95.2 65.1378L102.9 65.8378L102.9 84.6378L102.9 103.538L81.8 103.538L60.6 103.538L61.3 95.5378C62.1 85.6378 64.3 72.7378 66.4 65.7378C67.7 61.6378 68.4 60.5378 69.7 60.9378C70.6 61.2378 75 62.1378 79.4 62.9378ZM154.2 66.2378C156.1 72.9378 158.5 87.0378 159.4 96.7378L160.1 103.538L138.5 103.538L116.9 103.538L116.9 84.6378L116.9 65.8378L125.7 65.0378C130.5 64.6378 138 63.5378 142.4 62.5378C146.8 61.6378 150.9 60.7378 151.5 60.6378C152.1 60.6378 153.4 63.1378 154.2 66.2378ZM47.3 125.738C48.2 136.338 50.4 149.238 52.7 157.638L54.6 164.338L45.3 168.238L36 172.238L34 170.138C30.4 166.238 22.9 153.138 20 145.538C17 137.938 13.9 124.738 13.9 120.038L13.9 117.538L30.3 117.538L46.6 117.538L47.3 125.738ZM102.9 136.438L102.9 155.238L94.9 155.938C90.5 156.238 82.8 157.438 77.7 158.438C71.1 159.838 68.2 160.038 67.7 159.238C65.6 155.838 61 129.838 60.9 121.238L60.9 117.538L81.9 117.538L102.9 117.538L102.9 136.438ZM102.9 188.038L102.9 206.538L98.7 204.438C89.7 199.838 81.7 191.138 75.8 179.338C72.5 172.838 72.1 173.438 82.4 171.638C91.7 170.038 93.1 169.838 98.2 169.638L102.9 169.538L102.9 188.038ZM61.8 182.438C63 185.138 65.8 190.138 68 193.538L72 199.738L64.5 195.738C57.1 191.738 45.5 183.638 46.2 182.938C46.7 182.438 58.2 177.638 59 177.538C59.3 177.538 60.5 179.738 61.8 182.438Z"   fill="#FFFFFF" >
</path>
<path d="M130.3 133.638C128.5 135.638 128.4 138.338 128.1 191.538L127.9 247.338L130.5 250.438L133.1 253.538L155.6 253.538C177.6 253.538 181.2 253.138 183.1 250.138C183.5 249.538 183.9 223.338 183.9 191.838C183.9 141.238 183.7 134.538 182.3 133.138C181 131.738 177.2 131.538 156.5 131.538C133.1 131.538 132.1 131.638 130.3 133.638ZM173.9 192.538L173.9 242.538L156.4 242.538L138.9 242.538L138.9 192.538L138.9 142.538L156.4 142.538L173.9 142.538L173.9 192.538Z"   fill="#FFFFFF" >
</path>
<path d="M148.1 154.538C145.4 157.138 145.3 158.938 147.9 161.538C149.5 163.138 151.2 163.538 156.2 163.538C165.8 163.538 169.8 159.438 164.9 154.538C162 151.638 151.2 151.638 148.1 154.538Z"   fill="#FFFFFF" >
</path>
<path d="M147.5 176.138C145.4 178.238 145.5 179.738 148 182.938C149.8 185.238 150.7 185.538 156.3 185.538C165 185.538 168.8 181.938 165.9 176.438C165 174.838 163.7 174.538 156.9 174.538C151.1 174.538 148.6 174.938 147.5 176.138Z"   fill="#FFFFFF" >
</path>
<path d="M151.4 209.138C148.5 212.338 148.4 212.738 150.4 216.538C153.7 222.838 162.1 221.138 162.7 214.138C163.3 206.838 156.3 203.838 151.4 209.138Z"   fill="#FFFFFF" >
</path>
<path d="M196.8 133.238C195.6 134.538 195.4 145.038 195.4 192.238L195.4 249.738L197.8 251.638C199.8 253.338 201.8 253.538 213.8 253.538C228.6 253.538 231.9 252.538 231.9 248.238C231.8 243.338 230.1 242.638 217.3 242.338L205.4 242.038L205.1 192.238L204.9 142.538L222.9 142.538L240.9 142.538L240.9 157.838C240.9 172.138 241 173.338 243 175.138C244.9 176.838 245.3 176.838 247.7 175.438L250.4 173.938L250.7 155.238C250.9 139.338 250.7 136.138 249.3 134.038L247.7 131.538L222.9 131.538C201.1 131.538 198 131.738 196.8 133.238Z"   fill="#FFFFFF" >
</path>
<path d="M214.5 154.738C209.4 159.238 213.6 163.538 222.9 163.538C229.9 163.538 232.9 162.138 232.9 159.038C232.9 153.538 231.4 152.538 223.9 152.538C218.2 152.538 216.6 152.938 214.5 154.738Z"   fill="#FFFFFF" >
</path>
<path d="M213.6 176.638C211.8 179.138 212.5 182.138 215.2 184.038C217.4 185.538 225.5 186.038 229.7 184.938C232.2 184.238 233.4 180.838 232.5 177.038C231.9 174.638 231.6 174.538 223.4 174.538C216.1 174.538 214.8 174.838 213.6 176.638Z"   fill="#FFFFFF" >
</path>
<path d="M250.8 186.338C248.9 187.238 243.7 193.138 242.1 196.538C241.4 197.938 238.9 202.138 236.4 206.038C230.1 215.738 229.1 219.438 231.4 224.538C232.6 227.238 234.3 229.038 236.9 230.238C240.6 232.038 240.7 232.138 241.2 238.738C241.9 246.738 243 249.038 247.2 251.538C250.9 253.838 261 254.238 264.6 252.238C269.2 249.638 271.3 245.538 271.7 238.438C272.1 231.638 272.1 231.638 275.9 230.138C279.6 228.738 282.9 223.938 282.9 220.138C282.9 217.738 274.5 202.338 270.8 197.838C270 196.838 268.7 194.738 267.9 193.238C265.5 188.338 261.3 185.538 256.6 185.638C254.3 185.638 251.7 185.938 250.8 186.338ZM262.8 204.938C266.1 210.038 268.9 214.638 268.9 215.038C268.9 215.338 269.6 216.338 270.4 217.238C272.9 219.738 271.6 221.038 266.1 221.338L260.9 221.638L260.9 232.138L260.9 242.638L256.2 242.338L251.4 242.038L251.1 231.738L250.8 221.538L245.9 221.538C238.6 221.538 238.6 221.138 246.4 208.638C251.8 200.138 255.1 195.538 255.8 195.538C256.3 195.538 259.4 199.738 262.8 204.938Z"   fill="#FFFFFF" >
</path>
</svg>
